<mxfile host="app.diagrams.net" agent="Mozilla/5.0 (Windows NT 10.0; Win64; x64) AppleWebKit/537.36 (KHTML, like Gecko) Chrome/130.0.0.0 Safari/537.36" version="24.8.4">
  <diagram name="Page-1" id="uPO10X9lpSFaok97rVCm">
    <mxGraphModel grid="1" page="1" gridSize="10" guides="1" tooltips="1" connect="1" arrows="1" fold="1" pageScale="1" pageWidth="2000" pageHeight="2000" math="0" shadow="0">
      <root>
        <mxCell id="0" />
        <mxCell id="1" parent="0" />
        <mxCell id="rU2u5YYWM_UdheGYgo5h-1" style="edgeStyle=orthogonalEdgeStyle;rounded=0;orthogonalLoop=1;jettySize=auto;html=1;entryX=0;entryY=0.5;entryDx=0;entryDy=0;" edge="1" parent="1" source="rU2u5YYWM_UdheGYgo5h-3" target="rU2u5YYWM_UdheGYgo5h-14">
          <mxGeometry relative="1" as="geometry" />
        </mxCell>
        <mxCell id="rU2u5YYWM_UdheGYgo5h-2" style="edgeStyle=orthogonalEdgeStyle;rounded=0;orthogonalLoop=1;jettySize=auto;html=1;entryX=0;entryY=0.5;entryDx=0;entryDy=0;" edge="1" parent="1" source="rU2u5YYWM_UdheGYgo5h-3" target="rU2u5YYWM_UdheGYgo5h-9">
          <mxGeometry relative="1" as="geometry" />
        </mxCell>
        <mxCell id="rU2u5YYWM_UdheGYgo5h-3" value="1" style="ellipse;whiteSpace=wrap;html=1;aspect=fixed;" vertex="1" parent="1">
          <mxGeometry x="158" y="690" width="40" height="40" as="geometry" />
        </mxCell>
        <mxCell id="rU2u5YYWM_UdheGYgo5h-4" style="edgeStyle=orthogonalEdgeStyle;rounded=0;orthogonalLoop=1;jettySize=auto;html=1;entryX=0;entryY=0.5;entryDx=0;entryDy=0;" edge="1" parent="1" source="rU2u5YYWM_UdheGYgo5h-6" target="rU2u5YYWM_UdheGYgo5h-101">
          <mxGeometry relative="1" as="geometry" />
        </mxCell>
        <mxCell id="rU2u5YYWM_UdheGYgo5h-5" style="edgeStyle=orthogonalEdgeStyle;rounded=0;orthogonalLoop=1;jettySize=auto;html=1;entryX=0;entryY=0.5;entryDx=0;entryDy=0;" edge="1" parent="1" source="rU2u5YYWM_UdheGYgo5h-6" target="rU2u5YYWM_UdheGYgo5h-96">
          <mxGeometry relative="1" as="geometry" />
        </mxCell>
        <mxCell id="rU2u5YYWM_UdheGYgo5h-6" value="2" style="ellipse;whiteSpace=wrap;html=1;aspect=fixed;" vertex="1" parent="1">
          <mxGeometry x="490" y="690" width="40" height="40" as="geometry" />
        </mxCell>
        <mxCell id="rU2u5YYWM_UdheGYgo5h-7" style="edgeStyle=orthogonalEdgeStyle;rounded=0;orthogonalLoop=1;jettySize=auto;html=1;entryX=0;entryY=0.5;entryDx=0;entryDy=0;" edge="1" parent="1" source="rU2u5YYWM_UdheGYgo5h-9" target="rU2u5YYWM_UdheGYgo5h-18">
          <mxGeometry relative="1" as="geometry" />
        </mxCell>
        <mxCell id="rU2u5YYWM_UdheGYgo5h-8" style="edgeStyle=orthogonalEdgeStyle;rounded=0;orthogonalLoop=1;jettySize=auto;html=1;entryX=0;entryY=0.5;entryDx=0;entryDy=0;" edge="1" parent="1" source="rU2u5YYWM_UdheGYgo5h-9" target="rU2u5YYWM_UdheGYgo5h-16">
          <mxGeometry relative="1" as="geometry" />
        </mxCell>
        <mxCell id="rU2u5YYWM_UdheGYgo5h-9" value="2.2" style="ellipse;whiteSpace=wrap;html=1;aspect=fixed;" vertex="1" parent="1">
          <mxGeometry x="250" y="735" width="40" height="40" as="geometry" />
        </mxCell>
        <mxCell id="rU2u5YYWM_UdheGYgo5h-10" style="edgeStyle=orthogonalEdgeStyle;rounded=0;orthogonalLoop=1;jettySize=auto;html=1;entryX=0;entryY=0.5;entryDx=0;entryDy=0;" edge="1" parent="1" source="rU2u5YYWM_UdheGYgo5h-11" target="rU2u5YYWM_UdheGYgo5h-6">
          <mxGeometry relative="1" as="geometry" />
        </mxCell>
        <mxCell id="rU2u5YYWM_UdheGYgo5h-11" value="2.3" style="ellipse;whiteSpace=wrap;html=1;aspect=fixed;" vertex="1" parent="1">
          <mxGeometry x="370" y="610" width="40" height="40" as="geometry" />
        </mxCell>
        <mxCell id="rU2u5YYWM_UdheGYgo5h-12" style="edgeStyle=orthogonalEdgeStyle;rounded=0;orthogonalLoop=1;jettySize=auto;html=1;entryX=0;entryY=0.5;entryDx=0;entryDy=0;" edge="1" parent="1" source="rU2u5YYWM_UdheGYgo5h-14" target="rU2u5YYWM_UdheGYgo5h-18">
          <mxGeometry relative="1" as="geometry" />
        </mxCell>
        <mxCell id="rU2u5YYWM_UdheGYgo5h-13" style="edgeStyle=orthogonalEdgeStyle;rounded=0;orthogonalLoop=1;jettySize=auto;html=1;entryX=0;entryY=0.5;entryDx=0;entryDy=0;" edge="1" parent="1" source="rU2u5YYWM_UdheGYgo5h-14" target="rU2u5YYWM_UdheGYgo5h-11">
          <mxGeometry relative="1" as="geometry" />
        </mxCell>
        <mxCell id="rU2u5YYWM_UdheGYgo5h-14" value="2.1" style="ellipse;whiteSpace=wrap;html=1;aspect=fixed;" vertex="1" parent="1">
          <mxGeometry x="250" y="655" width="40" height="40" as="geometry" />
        </mxCell>
        <mxCell id="rU2u5YYWM_UdheGYgo5h-15" style="edgeStyle=orthogonalEdgeStyle;rounded=0;orthogonalLoop=1;jettySize=auto;html=1;entryX=0;entryY=0.5;entryDx=0;entryDy=0;" edge="1" parent="1" source="rU2u5YYWM_UdheGYgo5h-16" target="rU2u5YYWM_UdheGYgo5h-6">
          <mxGeometry relative="1" as="geometry" />
        </mxCell>
        <mxCell id="rU2u5YYWM_UdheGYgo5h-16" value="2.5" style="ellipse;whiteSpace=wrap;html=1;aspect=fixed;" vertex="1" parent="1">
          <mxGeometry x="370" y="770" width="40" height="40" as="geometry" />
        </mxCell>
        <mxCell id="rU2u5YYWM_UdheGYgo5h-17" style="edgeStyle=orthogonalEdgeStyle;rounded=0;orthogonalLoop=1;jettySize=auto;html=1;" edge="1" parent="1" source="rU2u5YYWM_UdheGYgo5h-18" target="rU2u5YYWM_UdheGYgo5h-6">
          <mxGeometry relative="1" as="geometry" />
        </mxCell>
        <mxCell id="rU2u5YYWM_UdheGYgo5h-18" value="2.4" style="ellipse;whiteSpace=wrap;html=1;aspect=fixed;" vertex="1" parent="1">
          <mxGeometry x="370" y="690" width="40" height="40" as="geometry" />
        </mxCell>
        <mxCell id="rU2u5YYWM_UdheGYgo5h-19" value="ET=0.5" style="text;html=1;align=center;verticalAlign=middle;whiteSpace=wrap;rounded=0;fontSize=8;fontStyle=1" vertex="1" parent="1">
          <mxGeometry x="162.5" y="730" width="31" height="10" as="geometry" />
        </mxCell>
        <mxCell id="rU2u5YYWM_UdheGYgo5h-20" value="TE=9" style="text;html=1;align=center;verticalAlign=middle;whiteSpace=wrap;rounded=0;fontSize=8;fontColor=#006600;fontStyle=1" vertex="1" parent="1">
          <mxGeometry x="162.5" y="679" width="31" height="10" as="geometry" />
        </mxCell>
        <mxCell id="rU2u5YYWM_UdheGYgo5h-21" value="ET=0.5" style="text;html=1;align=center;verticalAlign=middle;whiteSpace=wrap;rounded=0;fontSize=8;fontStyle=1" vertex="1" parent="1">
          <mxGeometry x="254.5" y="695" width="31" height="10" as="geometry" />
        </mxCell>
        <mxCell id="rU2u5YYWM_UdheGYgo5h-22" value="ET=0.5" style="text;html=1;align=center;verticalAlign=middle;whiteSpace=wrap;rounded=0;fontSize=8;fontStyle=1" vertex="1" parent="1">
          <mxGeometry x="254.5" y="775" width="31" height="10" as="geometry" />
        </mxCell>
        <mxCell id="rU2u5YYWM_UdheGYgo5h-23" value="ET=4" style="text;html=1;align=center;verticalAlign=middle;whiteSpace=wrap;rounded=0;fontSize=8;fontStyle=1" vertex="1" parent="1">
          <mxGeometry x="374.5" y="650" width="31" height="10" as="geometry" />
        </mxCell>
        <mxCell id="rU2u5YYWM_UdheGYgo5h-24" value="ET=2" style="text;html=1;align=center;verticalAlign=middle;whiteSpace=wrap;rounded=0;fontSize=8;fontStyle=1" vertex="1" parent="1">
          <mxGeometry x="374.5" y="730" width="31" height="10" as="geometry" />
        </mxCell>
        <mxCell id="rU2u5YYWM_UdheGYgo5h-25" value="ET=2" style="text;html=1;align=center;verticalAlign=middle;whiteSpace=wrap;rounded=0;fontSize=8;fontStyle=1" vertex="1" parent="1">
          <mxGeometry x="374.5" y="810" width="31" height="10" as="geometry" />
        </mxCell>
        <mxCell id="rU2u5YYWM_UdheGYgo5h-26" value="ET=0.5" style="text;html=1;align=center;verticalAlign=middle;whiteSpace=wrap;rounded=0;fontSize=8;fontStyle=1" vertex="1" parent="1">
          <mxGeometry x="494.5" y="730" width="31" height="10" as="geometry" />
        </mxCell>
        <mxCell id="rU2u5YYWM_UdheGYgo5h-27" value="TE=9.5" style="text;html=1;align=center;verticalAlign=middle;whiteSpace=wrap;rounded=0;fontSize=8;fontColor=#006600;fontStyle=1" vertex="1" parent="1">
          <mxGeometry x="254.5" y="645" width="31" height="10" as="geometry" />
        </mxCell>
        <mxCell id="rU2u5YYWM_UdheGYgo5h-28" value="TE=9.5" style="text;html=1;align=center;verticalAlign=middle;whiteSpace=wrap;rounded=0;fontSize=8;fontColor=#006600;fontStyle=1" vertex="1" parent="1">
          <mxGeometry x="254.5" y="725" width="31" height="10" as="geometry" />
        </mxCell>
        <mxCell id="rU2u5YYWM_UdheGYgo5h-29" value="TE=13.5" style="text;html=1;align=center;verticalAlign=middle;whiteSpace=wrap;rounded=0;fontSize=8;fontColor=#006600;fontStyle=1" vertex="1" parent="1">
          <mxGeometry x="374.5" y="600" width="31" height="10" as="geometry" />
        </mxCell>
        <mxCell id="rU2u5YYWM_UdheGYgo5h-30" value="TE=11.5" style="text;html=1;align=center;verticalAlign=middle;whiteSpace=wrap;rounded=0;fontSize=8;fontColor=#006600;fontStyle=1" vertex="1" parent="1">
          <mxGeometry x="374.5" y="680" width="31" height="10" as="geometry" />
        </mxCell>
        <mxCell id="rU2u5YYWM_UdheGYgo5h-31" value="TE=11.5" style="text;html=1;align=center;verticalAlign=middle;whiteSpace=wrap;rounded=0;fontSize=8;fontColor=#006600;fontStyle=1" vertex="1" parent="1">
          <mxGeometry x="374.5" y="760" width="31" height="10" as="geometry" />
        </mxCell>
        <mxCell id="rU2u5YYWM_UdheGYgo5h-32" value="TE=14" style="text;html=1;align=center;verticalAlign=middle;whiteSpace=wrap;rounded=0;fontSize=8;fontColor=#006600;fontStyle=1" vertex="1" parent="1">
          <mxGeometry x="494.5" y="680" width="31" height="10" as="geometry" />
        </mxCell>
        <mxCell id="rU2u5YYWM_UdheGYgo5h-33" value="TL=9" style="text;html=1;align=center;verticalAlign=middle;whiteSpace=wrap;rounded=0;fontSize=8;fontStyle=1;fontColor=#994C00;" vertex="1" parent="1">
          <mxGeometry x="162.5" y="671" width="31" height="10" as="geometry" />
        </mxCell>
        <mxCell id="rU2u5YYWM_UdheGYgo5h-34" value="TL=9.5" style="text;html=1;align=center;verticalAlign=middle;whiteSpace=wrap;rounded=0;fontSize=8;fontStyle=1;fontColor=#994C00;" vertex="1" parent="1">
          <mxGeometry x="254.5" y="635" width="31" height="10" as="geometry" />
        </mxCell>
        <mxCell id="rU2u5YYWM_UdheGYgo5h-35" value="TL=9.5" style="text;html=1;align=center;verticalAlign=middle;whiteSpace=wrap;rounded=0;fontSize=8;fontStyle=1;fontColor=#994C00;" vertex="1" parent="1">
          <mxGeometry x="254.5" y="715" width="31" height="10" as="geometry" />
        </mxCell>
        <mxCell id="rU2u5YYWM_UdheGYgo5h-36" value="TL=13.5" style="text;html=1;align=center;verticalAlign=middle;whiteSpace=wrap;rounded=0;fontSize=8;fontStyle=1;fontColor=#994C00;" vertex="1" parent="1">
          <mxGeometry x="374.5" y="591" width="31" height="10" as="geometry" />
        </mxCell>
        <mxCell id="rU2u5YYWM_UdheGYgo5h-37" value="TL=11.5" style="text;html=1;align=center;verticalAlign=middle;whiteSpace=wrap;rounded=0;fontSize=8;fontStyle=1;fontColor=#994C00;" vertex="1" parent="1">
          <mxGeometry x="374.5" y="670" width="31" height="10" as="geometry" />
        </mxCell>
        <mxCell id="rU2u5YYWM_UdheGYgo5h-38" value="TL=11.5" style="text;html=1;align=center;verticalAlign=middle;whiteSpace=wrap;rounded=0;fontSize=8;fontStyle=1;fontColor=#994C00;" vertex="1" parent="1">
          <mxGeometry x="374.5" y="750" width="31" height="10" as="geometry" />
        </mxCell>
        <mxCell id="rU2u5YYWM_UdheGYgo5h-39" value="TL=14" style="text;html=1;align=center;verticalAlign=middle;whiteSpace=wrap;rounded=0;fontSize=8;fontColor=#994C00;fontStyle=1" vertex="1" parent="1">
          <mxGeometry x="500" y="671" width="21" height="10" as="geometry" />
        </mxCell>
        <mxCell id="rU2u5YYWM_UdheGYgo5h-40" style="edgeStyle=orthogonalEdgeStyle;rounded=0;orthogonalLoop=1;jettySize=auto;html=1;entryX=0;entryY=0.5;entryDx=0;entryDy=0;" edge="1" parent="1" source="rU2u5YYWM_UdheGYgo5h-44" target="rU2u5YYWM_UdheGYgo5h-46">
          <mxGeometry relative="1" as="geometry" />
        </mxCell>
        <mxCell id="rU2u5YYWM_UdheGYgo5h-41" style="edgeStyle=orthogonalEdgeStyle;rounded=0;orthogonalLoop=1;jettySize=auto;html=1;entryX=0;entryY=0.5;entryDx=0;entryDy=0;" edge="1" parent="1" source="rU2u5YYWM_UdheGYgo5h-44" target="rU2u5YYWM_UdheGYgo5h-55">
          <mxGeometry relative="1" as="geometry" />
        </mxCell>
        <mxCell id="rU2u5YYWM_UdheGYgo5h-42" style="edgeStyle=orthogonalEdgeStyle;rounded=0;orthogonalLoop=1;jettySize=auto;html=1;" edge="1" parent="1" source="rU2u5YYWM_UdheGYgo5h-44" target="rU2u5YYWM_UdheGYgo5h-53">
          <mxGeometry relative="1" as="geometry" />
        </mxCell>
        <mxCell id="rU2u5YYWM_UdheGYgo5h-43" style="edgeStyle=orthogonalEdgeStyle;rounded=0;orthogonalLoop=1;jettySize=auto;html=1;entryX=0;entryY=0.5;entryDx=0;entryDy=0;" edge="1" parent="1" source="rU2u5YYWM_UdheGYgo5h-44" target="rU2u5YYWM_UdheGYgo5h-77">
          <mxGeometry relative="1" as="geometry" />
        </mxCell>
        <mxCell id="rU2u5YYWM_UdheGYgo5h-44" value="1.2" style="ellipse;whiteSpace=wrap;html=1;aspect=fixed;" vertex="1" parent="1">
          <mxGeometry x="-170" y="739.5" width="40" height="40" as="geometry" />
        </mxCell>
        <mxCell id="rU2u5YYWM_UdheGYgo5h-45" style="edgeStyle=orthogonalEdgeStyle;rounded=0;orthogonalLoop=1;jettySize=auto;html=1;" edge="1" parent="1" source="rU2u5YYWM_UdheGYgo5h-46" target="rU2u5YYWM_UdheGYgo5h-72">
          <mxGeometry relative="1" as="geometry" />
        </mxCell>
        <mxCell id="rU2u5YYWM_UdheGYgo5h-46" value="1.3" style="ellipse;whiteSpace=wrap;html=1;aspect=fixed;" vertex="1" parent="1">
          <mxGeometry x="-60" y="579.5" width="40" height="40" as="geometry" />
        </mxCell>
        <mxCell id="rU2u5YYWM_UdheGYgo5h-47" style="edgeStyle=orthogonalEdgeStyle;rounded=0;orthogonalLoop=1;jettySize=auto;html=1;entryX=0;entryY=0.5;entryDx=0;entryDy=0;" edge="1" parent="1" source="rU2u5YYWM_UdheGYgo5h-51" target="rU2u5YYWM_UdheGYgo5h-46">
          <mxGeometry relative="1" as="geometry" />
        </mxCell>
        <mxCell id="rU2u5YYWM_UdheGYgo5h-48" style="edgeStyle=orthogonalEdgeStyle;rounded=0;orthogonalLoop=1;jettySize=auto;html=1;" edge="1" parent="1" source="rU2u5YYWM_UdheGYgo5h-51" target="rU2u5YYWM_UdheGYgo5h-55">
          <mxGeometry relative="1" as="geometry" />
        </mxCell>
        <mxCell id="rU2u5YYWM_UdheGYgo5h-49" style="edgeStyle=orthogonalEdgeStyle;rounded=0;orthogonalLoop=1;jettySize=auto;html=1;entryX=0;entryY=0.5;entryDx=0;entryDy=0;" edge="1" parent="1" source="rU2u5YYWM_UdheGYgo5h-51" target="rU2u5YYWM_UdheGYgo5h-53">
          <mxGeometry relative="1" as="geometry" />
        </mxCell>
        <mxCell id="rU2u5YYWM_UdheGYgo5h-50" style="edgeStyle=orthogonalEdgeStyle;rounded=0;orthogonalLoop=1;jettySize=auto;html=1;entryX=0;entryY=0.5;entryDx=0;entryDy=0;" edge="1" parent="1" source="rU2u5YYWM_UdheGYgo5h-51" target="rU2u5YYWM_UdheGYgo5h-77">
          <mxGeometry relative="1" as="geometry" />
        </mxCell>
        <mxCell id="rU2u5YYWM_UdheGYgo5h-51" value="1.1" style="ellipse;whiteSpace=wrap;html=1;aspect=fixed;" vertex="1" parent="1">
          <mxGeometry x="-170" y="659.5" width="40" height="40" as="geometry" />
        </mxCell>
        <mxCell id="rU2u5YYWM_UdheGYgo5h-52" style="edgeStyle=orthogonalEdgeStyle;rounded=0;orthogonalLoop=1;jettySize=auto;html=1;" edge="1" parent="1" source="rU2u5YYWM_UdheGYgo5h-53" target="rU2u5YYWM_UdheGYgo5h-81">
          <mxGeometry relative="1" as="geometry" />
        </mxCell>
        <mxCell id="rU2u5YYWM_UdheGYgo5h-53" value="1.5" style="ellipse;whiteSpace=wrap;html=1;aspect=fixed;" vertex="1" parent="1">
          <mxGeometry x="-60" y="739.5" width="40" height="40" as="geometry" />
        </mxCell>
        <mxCell id="rU2u5YYWM_UdheGYgo5h-54" style="edgeStyle=orthogonalEdgeStyle;rounded=0;orthogonalLoop=1;jettySize=auto;html=1;" edge="1" parent="1" source="rU2u5YYWM_UdheGYgo5h-55" target="rU2u5YYWM_UdheGYgo5h-74">
          <mxGeometry relative="1" as="geometry" />
        </mxCell>
        <mxCell id="rU2u5YYWM_UdheGYgo5h-55" value="1.4" style="ellipse;whiteSpace=wrap;html=1;aspect=fixed;" vertex="1" parent="1">
          <mxGeometry x="-60" y="659.5" width="40" height="40" as="geometry" />
        </mxCell>
        <mxCell id="rU2u5YYWM_UdheGYgo5h-56" value="ET=1.5" style="text;html=1;align=center;verticalAlign=middle;whiteSpace=wrap;rounded=0;fontSize=8;fontStyle=1" vertex="1" parent="1">
          <mxGeometry x="-165.5" y="699.5" width="31" height="10" as="geometry" />
        </mxCell>
        <mxCell id="rU2u5YYWM_UdheGYgo5h-57" value="ET=1.5" style="text;html=1;align=center;verticalAlign=middle;whiteSpace=wrap;rounded=0;fontSize=8;fontStyle=1" vertex="1" parent="1">
          <mxGeometry x="-165.5" y="779.5" width="31" height="10" as="geometry" />
        </mxCell>
        <mxCell id="rU2u5YYWM_UdheGYgo5h-58" value="ET=3.5" style="text;html=1;align=center;verticalAlign=middle;whiteSpace=wrap;rounded=0;fontSize=8;fontStyle=1" vertex="1" parent="1">
          <mxGeometry x="-55.5" y="619.5" width="31" height="10" as="geometry" />
        </mxCell>
        <mxCell id="rU2u5YYWM_UdheGYgo5h-59" value="ET=3.5" style="text;html=1;align=center;verticalAlign=middle;whiteSpace=wrap;rounded=0;fontSize=8;fontStyle=1" vertex="1" parent="1">
          <mxGeometry x="-55.5" y="699.5" width="31" height="10" as="geometry" />
        </mxCell>
        <mxCell id="rU2u5YYWM_UdheGYgo5h-60" value="ET=5" style="text;html=1;align=center;verticalAlign=middle;whiteSpace=wrap;rounded=0;fontSize=8;fontStyle=1" vertex="1" parent="1">
          <mxGeometry x="-55.5" y="779.5" width="31" height="10" as="geometry" />
        </mxCell>
        <mxCell id="rU2u5YYWM_UdheGYgo5h-61" value="TE=1.5" style="text;html=1;align=center;verticalAlign=middle;whiteSpace=wrap;rounded=0;fontSize=8;fontColor=#006600;fontStyle=1" vertex="1" parent="1">
          <mxGeometry x="-165.5" y="649.5" width="31" height="10" as="geometry" />
        </mxCell>
        <mxCell id="rU2u5YYWM_UdheGYgo5h-62" value="TE=1.5" style="text;html=1;align=center;verticalAlign=middle;whiteSpace=wrap;rounded=0;fontSize=8;fontColor=#006600;fontStyle=1" vertex="1" parent="1">
          <mxGeometry x="-165.5" y="729.5" width="31" height="10" as="geometry" />
        </mxCell>
        <mxCell id="rU2u5YYWM_UdheGYgo5h-63" value="TE=5" style="text;html=1;align=center;verticalAlign=middle;whiteSpace=wrap;rounded=0;fontSize=8;fontColor=#006600;fontStyle=1" vertex="1" parent="1">
          <mxGeometry x="-55.5" y="569.5" width="31" height="10" as="geometry" />
        </mxCell>
        <mxCell id="rU2u5YYWM_UdheGYgo5h-64" value="TE=5" style="text;html=1;align=center;verticalAlign=middle;whiteSpace=wrap;rounded=0;fontSize=8;fontColor=#006600;fontStyle=1" vertex="1" parent="1">
          <mxGeometry x="-55.5" y="649.5" width="31" height="10" as="geometry" />
        </mxCell>
        <mxCell id="rU2u5YYWM_UdheGYgo5h-65" value="TE=5" style="text;html=1;align=center;verticalAlign=middle;whiteSpace=wrap;rounded=0;fontSize=8;fontColor=#006600;fontStyle=1" vertex="1" parent="1">
          <mxGeometry x="-55.5" y="729.5" width="31" height="10" as="geometry" />
        </mxCell>
        <mxCell id="rU2u5YYWM_UdheGYgo5h-66" value="TL=1.5" style="text;html=1;align=center;verticalAlign=middle;whiteSpace=wrap;rounded=0;fontSize=8;fontStyle=1;fontColor=#994C00;" vertex="1" parent="1">
          <mxGeometry x="-165.5" y="639.5" width="31" height="10" as="geometry" />
        </mxCell>
        <mxCell id="rU2u5YYWM_UdheGYgo5h-67" value="TL=1.5" style="text;html=1;align=center;verticalAlign=middle;whiteSpace=wrap;rounded=0;fontSize=8;fontStyle=1;fontColor=#994C00;" vertex="1" parent="1">
          <mxGeometry x="-165.5" y="719.5" width="31" height="10" as="geometry" />
        </mxCell>
        <mxCell id="rU2u5YYWM_UdheGYgo5h-68" value="TL=5" style="text;html=1;align=center;verticalAlign=middle;whiteSpace=wrap;rounded=0;fontSize=8;fontStyle=1;fontColor=#994C00;" vertex="1" parent="1">
          <mxGeometry x="-55.5" y="560.5" width="31" height="10" as="geometry" />
        </mxCell>
        <mxCell id="rU2u5YYWM_UdheGYgo5h-69" value="TL=5" style="text;html=1;align=center;verticalAlign=middle;whiteSpace=wrap;rounded=0;fontSize=8;fontStyle=1;fontColor=#994C00;" vertex="1" parent="1">
          <mxGeometry x="-55.5" y="639.5" width="31" height="10" as="geometry" />
        </mxCell>
        <mxCell id="rU2u5YYWM_UdheGYgo5h-70" value="TL=5" style="text;html=1;align=center;verticalAlign=middle;whiteSpace=wrap;rounded=0;fontSize=8;fontStyle=1;fontColor=#994C00;" vertex="1" parent="1">
          <mxGeometry x="-55.5" y="719.5" width="31" height="10" as="geometry" />
        </mxCell>
        <mxCell id="rU2u5YYWM_UdheGYgo5h-71" style="edgeStyle=orthogonalEdgeStyle;rounded=0;orthogonalLoop=1;jettySize=auto;html=1;entryX=0;entryY=0.5;entryDx=0;entryDy=0;" edge="1" parent="1" source="rU2u5YYWM_UdheGYgo5h-72" target="rU2u5YYWM_UdheGYgo5h-3">
          <mxGeometry relative="1" as="geometry" />
        </mxCell>
        <mxCell id="rU2u5YYWM_UdheGYgo5h-72" value="1.7" style="ellipse;whiteSpace=wrap;html=1;aspect=fixed;" vertex="1" parent="1">
          <mxGeometry x="53" y="579.5" width="40" height="40" as="geometry" />
        </mxCell>
        <mxCell id="rU2u5YYWM_UdheGYgo5h-73" style="edgeStyle=orthogonalEdgeStyle;rounded=0;orthogonalLoop=1;jettySize=auto;html=1;entryX=0;entryY=0.5;entryDx=0;entryDy=0;" edge="1" parent="1" source="rU2u5YYWM_UdheGYgo5h-74" target="rU2u5YYWM_UdheGYgo5h-3">
          <mxGeometry relative="1" as="geometry" />
        </mxCell>
        <mxCell id="rU2u5YYWM_UdheGYgo5h-74" value="1.8" style="ellipse;whiteSpace=wrap;html=1;aspect=fixed;" vertex="1" parent="1">
          <mxGeometry x="53" y="659.5" width="40" height="40" as="geometry" />
        </mxCell>
        <mxCell id="rU2u5YYWM_UdheGYgo5h-75" style="edgeStyle=orthogonalEdgeStyle;rounded=0;orthogonalLoop=1;jettySize=auto;html=1;entryX=0;entryY=0.5;entryDx=0;entryDy=0;" edge="1" parent="1" source="rU2u5YYWM_UdheGYgo5h-77" target="rU2u5YYWM_UdheGYgo5h-79">
          <mxGeometry relative="1" as="geometry" />
        </mxCell>
        <mxCell id="rU2u5YYWM_UdheGYgo5h-76" style="edgeStyle=orthogonalEdgeStyle;rounded=0;orthogonalLoop=1;jettySize=auto;html=1;entryX=0;entryY=0.5;entryDx=0;entryDy=0;" edge="1" parent="1" source="rU2u5YYWM_UdheGYgo5h-77" target="rU2u5YYWM_UdheGYgo5h-72">
          <mxGeometry relative="1" as="geometry" />
        </mxCell>
        <mxCell id="rU2u5YYWM_UdheGYgo5h-77" value="1.6" style="ellipse;whiteSpace=wrap;html=1;aspect=fixed;" vertex="1" parent="1">
          <mxGeometry x="-60" y="819.5" width="40" height="40" as="geometry" />
        </mxCell>
        <mxCell id="rU2u5YYWM_UdheGYgo5h-78" style="edgeStyle=orthogonalEdgeStyle;rounded=0;orthogonalLoop=1;jettySize=auto;html=1;entryX=0;entryY=0.5;entryDx=0;entryDy=0;" edge="1" parent="1" source="rU2u5YYWM_UdheGYgo5h-79" target="rU2u5YYWM_UdheGYgo5h-3">
          <mxGeometry relative="1" as="geometry" />
        </mxCell>
        <mxCell id="rU2u5YYWM_UdheGYgo5h-79" value="1.10" style="ellipse;whiteSpace=wrap;html=1;aspect=fixed;" vertex="1" parent="1">
          <mxGeometry x="53" y="818.5" width="40" height="40" as="geometry" />
        </mxCell>
        <mxCell id="rU2u5YYWM_UdheGYgo5h-80" style="edgeStyle=orthogonalEdgeStyle;rounded=0;orthogonalLoop=1;jettySize=auto;html=1;entryX=0;entryY=0.5;entryDx=0;entryDy=0;" edge="1" parent="1" source="rU2u5YYWM_UdheGYgo5h-81" target="rU2u5YYWM_UdheGYgo5h-3">
          <mxGeometry relative="1" as="geometry" />
        </mxCell>
        <mxCell id="rU2u5YYWM_UdheGYgo5h-81" value="1.9" style="ellipse;whiteSpace=wrap;html=1;aspect=fixed;" vertex="1" parent="1">
          <mxGeometry x="53" y="739.5" width="40" height="40" as="geometry" />
        </mxCell>
        <mxCell id="rU2u5YYWM_UdheGYgo5h-82" value="ET=3.5" style="text;html=1;align=center;verticalAlign=middle;whiteSpace=wrap;rounded=0;fontSize=8;fontStyle=1" vertex="1" parent="1">
          <mxGeometry x="-55.5" y="859.5" width="31" height="10" as="geometry" />
        </mxCell>
        <mxCell id="rU2u5YYWM_UdheGYgo5h-83" value="ET=3.5" style="text;html=1;align=center;verticalAlign=middle;whiteSpace=wrap;rounded=0;fontSize=8;fontStyle=1" vertex="1" parent="1">
          <mxGeometry x="57.5" y="619.5" width="31" height="10" as="geometry" />
        </mxCell>
        <mxCell id="rU2u5YYWM_UdheGYgo5h-84" value="ET=3.5" style="text;html=1;align=center;verticalAlign=middle;whiteSpace=wrap;rounded=0;fontSize=8;fontStyle=1" vertex="1" parent="1">
          <mxGeometry x="57.5" y="699.5" width="31" height="10" as="geometry" />
        </mxCell>
        <mxCell id="rU2u5YYWM_UdheGYgo5h-85" value="ET=3.5" style="text;html=1;align=center;verticalAlign=middle;whiteSpace=wrap;rounded=0;fontSize=8;fontStyle=1" vertex="1" parent="1">
          <mxGeometry x="57.5" y="779.5" width="31" height="10" as="geometry" />
        </mxCell>
        <mxCell id="rU2u5YYWM_UdheGYgo5h-86" value="ET=3.5" style="text;html=1;align=center;verticalAlign=middle;whiteSpace=wrap;rounded=0;fontSize=8;fontStyle=1" vertex="1" parent="1">
          <mxGeometry x="57.5" y="858.5" width="31" height="10" as="geometry" />
        </mxCell>
        <mxCell id="rU2u5YYWM_UdheGYgo5h-87" value="TE=5" style="text;html=1;align=center;verticalAlign=middle;whiteSpace=wrap;rounded=0;fontSize=8;fontColor=#006600;fontStyle=1" vertex="1" parent="1">
          <mxGeometry x="-55.5" y="809.5" width="31" height="10" as="geometry" />
        </mxCell>
        <mxCell id="rU2u5YYWM_UdheGYgo5h-88" value="TE=8.5" style="text;html=1;align=center;verticalAlign=middle;whiteSpace=wrap;rounded=0;fontSize=8;fontColor=#006600;fontStyle=1" vertex="1" parent="1">
          <mxGeometry x="57.5" y="569.5" width="31" height="10" as="geometry" />
        </mxCell>
        <mxCell id="rU2u5YYWM_UdheGYgo5h-89" value="TE=8.5" style="text;html=1;align=center;verticalAlign=middle;whiteSpace=wrap;rounded=0;fontSize=8;fontColor=#006600;fontStyle=1" vertex="1" parent="1">
          <mxGeometry x="57.5" y="649.5" width="31" height="10" as="geometry" />
        </mxCell>
        <mxCell id="rU2u5YYWM_UdheGYgo5h-90" value="TE=8.5" style="text;html=1;align=center;verticalAlign=middle;whiteSpace=wrap;rounded=0;fontSize=8;fontColor=#006600;fontStyle=1" vertex="1" parent="1">
          <mxGeometry x="57.5" y="729.5" width="31" height="10" as="geometry" />
        </mxCell>
        <mxCell id="rU2u5YYWM_UdheGYgo5h-91" value="TE=8.5" style="text;html=1;align=center;verticalAlign=middle;whiteSpace=wrap;rounded=0;fontSize=8;fontColor=#006600;fontStyle=1" vertex="1" parent="1">
          <mxGeometry x="57.5" y="808.5" width="31" height="10" as="geometry" />
        </mxCell>
        <mxCell id="rU2u5YYWM_UdheGYgo5h-92" value="TL=5" style="text;html=1;align=center;verticalAlign=middle;whiteSpace=wrap;rounded=0;fontSize=8;fontStyle=1;fontColor=#994C00;" vertex="1" parent="1">
          <mxGeometry x="-55.5" y="799.5" width="31" height="10" as="geometry" />
        </mxCell>
        <mxCell id="rU2u5YYWM_UdheGYgo5h-93" value="TL=8.5" style="text;html=1;align=center;verticalAlign=middle;whiteSpace=wrap;rounded=0;fontSize=8;fontStyle=1;fontColor=#994C00;" vertex="1" parent="1">
          <mxGeometry x="57.5" y="559.5" width="31" height="10" as="geometry" />
        </mxCell>
        <mxCell id="rU2u5YYWM_UdheGYgo5h-94" style="edgeStyle=orthogonalEdgeStyle;rounded=0;orthogonalLoop=1;jettySize=auto;html=1;entryX=0;entryY=0.5;entryDx=0;entryDy=0;" edge="1" parent="1" source="rU2u5YYWM_UdheGYgo5h-96" target="rU2u5YYWM_UdheGYgo5h-105">
          <mxGeometry relative="1" as="geometry" />
        </mxCell>
        <mxCell id="rU2u5YYWM_UdheGYgo5h-95" style="edgeStyle=orthogonalEdgeStyle;rounded=0;orthogonalLoop=1;jettySize=auto;html=1;entryX=0;entryY=0.5;entryDx=0;entryDy=0;" edge="1" parent="1" source="rU2u5YYWM_UdheGYgo5h-96" target="rU2u5YYWM_UdheGYgo5h-103">
          <mxGeometry relative="1" as="geometry" />
        </mxCell>
        <mxCell id="rU2u5YYWM_UdheGYgo5h-96" value="3.2" style="ellipse;whiteSpace=wrap;html=1;aspect=fixed;" vertex="1" parent="1">
          <mxGeometry x="582" y="729.5" width="40" height="40" as="geometry" />
        </mxCell>
        <mxCell id="rU2u5YYWM_UdheGYgo5h-97" style="edgeStyle=orthogonalEdgeStyle;rounded=0;orthogonalLoop=1;jettySize=auto;html=1;entryX=0;entryY=0.5;entryDx=0;entryDy=0;" edge="1" parent="1" source="rU2u5YYWM_UdheGYgo5h-98" target="rU2u5YYWM_UdheGYgo5h-123">
          <mxGeometry relative="1" as="geometry" />
        </mxCell>
        <mxCell id="rU2u5YYWM_UdheGYgo5h-98" value="3.3" style="ellipse;whiteSpace=wrap;html=1;aspect=fixed;" vertex="1" parent="1">
          <mxGeometry x="702" y="604.5" width="40" height="40" as="geometry" />
        </mxCell>
        <mxCell id="rU2u5YYWM_UdheGYgo5h-99" style="edgeStyle=orthogonalEdgeStyle;rounded=0;orthogonalLoop=1;jettySize=auto;html=1;entryX=0;entryY=0.5;entryDx=0;entryDy=0;" edge="1" parent="1" source="rU2u5YYWM_UdheGYgo5h-101" target="rU2u5YYWM_UdheGYgo5h-105">
          <mxGeometry relative="1" as="geometry" />
        </mxCell>
        <mxCell id="rU2u5YYWM_UdheGYgo5h-100" style="edgeStyle=orthogonalEdgeStyle;rounded=0;orthogonalLoop=1;jettySize=auto;html=1;entryX=0;entryY=0.5;entryDx=0;entryDy=0;" edge="1" parent="1" source="rU2u5YYWM_UdheGYgo5h-101" target="rU2u5YYWM_UdheGYgo5h-98">
          <mxGeometry relative="1" as="geometry" />
        </mxCell>
        <mxCell id="rU2u5YYWM_UdheGYgo5h-101" value="3.1" style="ellipse;whiteSpace=wrap;html=1;aspect=fixed;" vertex="1" parent="1">
          <mxGeometry x="582" y="649.5" width="40" height="40" as="geometry" />
        </mxCell>
        <mxCell id="rU2u5YYWM_UdheGYgo5h-102" style="edgeStyle=orthogonalEdgeStyle;rounded=0;orthogonalLoop=1;jettySize=auto;html=1;entryX=0;entryY=0.5;entryDx=0;entryDy=0;" edge="1" parent="1" source="rU2u5YYWM_UdheGYgo5h-103" target="rU2u5YYWM_UdheGYgo5h-123">
          <mxGeometry relative="1" as="geometry" />
        </mxCell>
        <mxCell id="rU2u5YYWM_UdheGYgo5h-103" value="3.5" style="ellipse;whiteSpace=wrap;html=1;aspect=fixed;" vertex="1" parent="1">
          <mxGeometry x="702" y="764.5" width="40" height="40" as="geometry" />
        </mxCell>
        <mxCell id="rU2u5YYWM_UdheGYgo5h-104" style="edgeStyle=orthogonalEdgeStyle;rounded=0;orthogonalLoop=1;jettySize=auto;html=1;" edge="1" parent="1" source="rU2u5YYWM_UdheGYgo5h-105" target="rU2u5YYWM_UdheGYgo5h-123">
          <mxGeometry relative="1" as="geometry" />
        </mxCell>
        <mxCell id="rU2u5YYWM_UdheGYgo5h-105" value="3.4" style="ellipse;whiteSpace=wrap;html=1;aspect=fixed;" vertex="1" parent="1">
          <mxGeometry x="702" y="684.5" width="40" height="40" as="geometry" />
        </mxCell>
        <mxCell id="rU2u5YYWM_UdheGYgo5h-106" value="ET=0.5" style="text;html=1;align=center;verticalAlign=middle;whiteSpace=wrap;rounded=0;fontSize=8;fontStyle=1" vertex="1" parent="1">
          <mxGeometry x="586.5" y="689.5" width="31" height="10" as="geometry" />
        </mxCell>
        <mxCell id="rU2u5YYWM_UdheGYgo5h-107" value="ET=0.5" style="text;html=1;align=center;verticalAlign=middle;whiteSpace=wrap;rounded=0;fontSize=8;fontStyle=1" vertex="1" parent="1">
          <mxGeometry x="586.5" y="769.5" width="31" height="10" as="geometry" />
        </mxCell>
        <mxCell id="rU2u5YYWM_UdheGYgo5h-108" value="ET=1" style="text;html=1;align=center;verticalAlign=middle;whiteSpace=wrap;rounded=0;fontSize=8;fontStyle=1" vertex="1" parent="1">
          <mxGeometry x="706.5" y="644.5" width="31" height="10" as="geometry" />
        </mxCell>
        <mxCell id="rU2u5YYWM_UdheGYgo5h-109" value="ET=3" style="text;html=1;align=center;verticalAlign=middle;whiteSpace=wrap;rounded=0;fontSize=8;fontStyle=1" vertex="1" parent="1">
          <mxGeometry x="706.5" y="724.5" width="31" height="10" as="geometry" />
        </mxCell>
        <mxCell id="rU2u5YYWM_UdheGYgo5h-110" value="ET=3" style="text;html=1;align=center;verticalAlign=middle;whiteSpace=wrap;rounded=0;fontSize=8;fontStyle=1" vertex="1" parent="1">
          <mxGeometry x="706.5" y="804.5" width="31" height="10" as="geometry" />
        </mxCell>
        <mxCell id="rU2u5YYWM_UdheGYgo5h-111" value="TE=14.5" style="text;html=1;align=center;verticalAlign=middle;whiteSpace=wrap;rounded=0;fontSize=8;fontColor=#006600;fontStyle=1" vertex="1" parent="1">
          <mxGeometry x="586.5" y="639.5" width="31" height="10" as="geometry" />
        </mxCell>
        <mxCell id="rU2u5YYWM_UdheGYgo5h-112" value="TE=14.5" style="text;html=1;align=center;verticalAlign=middle;whiteSpace=wrap;rounded=0;fontSize=8;fontColor=#006600;fontStyle=1" vertex="1" parent="1">
          <mxGeometry x="586.5" y="719.5" width="31" height="10" as="geometry" />
        </mxCell>
        <mxCell id="rU2u5YYWM_UdheGYgo5h-113" value="TE=10.5" style="text;html=1;align=center;verticalAlign=middle;whiteSpace=wrap;rounded=0;fontSize=8;fontColor=#006600;fontStyle=1" vertex="1" parent="1">
          <mxGeometry x="706.5" y="594.5" width="31" height="10" as="geometry" />
        </mxCell>
        <mxCell id="rU2u5YYWM_UdheGYgo5h-114" value="TE=12.5" style="text;html=1;align=center;verticalAlign=middle;whiteSpace=wrap;rounded=0;fontSize=8;fontColor=#006600;fontStyle=1" vertex="1" parent="1">
          <mxGeometry x="706.5" y="674.5" width="31" height="10" as="geometry" />
        </mxCell>
        <mxCell id="rU2u5YYWM_UdheGYgo5h-115" value="TE=12.5" style="text;html=1;align=center;verticalAlign=middle;whiteSpace=wrap;rounded=0;fontSize=8;fontColor=#006600;fontStyle=1" vertex="1" parent="1">
          <mxGeometry x="706.5" y="754.5" width="31" height="10" as="geometry" />
        </mxCell>
        <mxCell id="rU2u5YYWM_UdheGYgo5h-116" value="TL=14.5" style="text;html=1;align=center;verticalAlign=middle;whiteSpace=wrap;rounded=0;fontSize=8;fontStyle=1;fontColor=#994C00;" vertex="1" parent="1">
          <mxGeometry x="586.5" y="629.5" width="31" height="10" as="geometry" />
        </mxCell>
        <mxCell id="rU2u5YYWM_UdheGYgo5h-117" value="TL=14.5" style="text;html=1;align=center;verticalAlign=middle;whiteSpace=wrap;rounded=0;fontSize=8;fontStyle=1;fontColor=#994C00;" vertex="1" parent="1">
          <mxGeometry x="586.5" y="709.5" width="31" height="10" as="geometry" />
        </mxCell>
        <mxCell id="rU2u5YYWM_UdheGYgo5h-118" value="TL=15.5" style="text;html=1;align=center;verticalAlign=middle;whiteSpace=wrap;rounded=0;fontSize=8;fontStyle=1;fontColor=#994C00;" vertex="1" parent="1">
          <mxGeometry x="706.5" y="585.5" width="31" height="10" as="geometry" />
        </mxCell>
        <mxCell id="rU2u5YYWM_UdheGYgo5h-119" value="TL=17.5" style="text;html=1;align=center;verticalAlign=middle;whiteSpace=wrap;rounded=0;fontSize=8;fontStyle=1;fontColor=#994C00;" vertex="1" parent="1">
          <mxGeometry x="706.5" y="664.5" width="31" height="10" as="geometry" />
        </mxCell>
        <mxCell id="rU2u5YYWM_UdheGYgo5h-120" value="TL=17.5" style="text;html=1;align=center;verticalAlign=middle;whiteSpace=wrap;rounded=0;fontSize=8;fontStyle=1;fontColor=#994C00;" vertex="1" parent="1">
          <mxGeometry x="706.5" y="744.5" width="31" height="10" as="geometry" />
        </mxCell>
        <mxCell id="rU2u5YYWM_UdheGYgo5h-121" style="edgeStyle=orthogonalEdgeStyle;rounded=0;orthogonalLoop=1;jettySize=auto;html=1;" edge="1" parent="1" source="rU2u5YYWM_UdheGYgo5h-123" target="rU2u5YYWM_UdheGYgo5h-130">
          <mxGeometry relative="1" as="geometry" />
        </mxCell>
        <mxCell id="rU2u5YYWM_UdheGYgo5h-122" style="edgeStyle=orthogonalEdgeStyle;rounded=0;orthogonalLoop=1;jettySize=auto;html=1;entryX=0;entryY=0.5;entryDx=0;entryDy=0;" edge="1" parent="1" source="rU2u5YYWM_UdheGYgo5h-123" target="rU2u5YYWM_UdheGYgo5h-128">
          <mxGeometry relative="1" as="geometry" />
        </mxCell>
        <mxCell id="rU2u5YYWM_UdheGYgo5h-123" value="3" style="ellipse;whiteSpace=wrap;html=1;aspect=fixed;" vertex="1" parent="1">
          <mxGeometry x="799" y="684.5" width="40" height="40" as="geometry" />
        </mxCell>
        <mxCell id="rU2u5YYWM_UdheGYgo5h-124" value="ET=0.5" style="text;html=1;align=center;verticalAlign=middle;whiteSpace=wrap;rounded=0;fontSize=8;fontStyle=1" vertex="1" parent="1">
          <mxGeometry x="803" y="725" width="31" height="10" as="geometry" />
        </mxCell>
        <mxCell id="rU2u5YYWM_UdheGYgo5h-125" value="TE=18" style="text;html=1;align=center;verticalAlign=middle;whiteSpace=wrap;rounded=0;fontSize=8;fontColor=#006600;fontStyle=1" vertex="1" parent="1">
          <mxGeometry x="803" y="675" width="31" height="10" as="geometry" />
        </mxCell>
        <mxCell id="rU2u5YYWM_UdheGYgo5h-126" value="TL=18" style="text;html=1;align=center;verticalAlign=middle;whiteSpace=wrap;rounded=0;fontSize=8;fontColor=#994C00;fontStyle=1" vertex="1" parent="1">
          <mxGeometry x="807.5" y="666" width="21" height="10" as="geometry" />
        </mxCell>
        <mxCell id="rU2u5YYWM_UdheGYgo5h-127" style="edgeStyle=orthogonalEdgeStyle;rounded=0;orthogonalLoop=1;jettySize=auto;html=1;entryX=0;entryY=0.5;entryDx=0;entryDy=0;" edge="1" parent="1" source="rU2u5YYWM_UdheGYgo5h-128" target="rU2u5YYWM_UdheGYgo5h-143">
          <mxGeometry relative="1" as="geometry">
            <mxPoint x="950" y="730" as="targetPoint" />
          </mxGeometry>
        </mxCell>
        <mxCell id="rU2u5YYWM_UdheGYgo5h-128" value="4.2" style="ellipse;whiteSpace=wrap;html=1;aspect=fixed;" vertex="1" parent="1">
          <mxGeometry x="884" y="729.5" width="40" height="40" as="geometry" />
        </mxCell>
        <mxCell id="rU2u5YYWM_UdheGYgo5h-129" style="edgeStyle=orthogonalEdgeStyle;rounded=0;orthogonalLoop=1;jettySize=auto;html=1;" edge="1" parent="1" source="rU2u5YYWM_UdheGYgo5h-130" target="rU2u5YYWM_UdheGYgo5h-143">
          <mxGeometry relative="1" as="geometry" />
        </mxCell>
        <mxCell id="rU2u5YYWM_UdheGYgo5h-130" value="4.1" style="ellipse;whiteSpace=wrap;html=1;aspect=fixed;" vertex="1" parent="1">
          <mxGeometry x="884" y="649.5" width="40" height="40" as="geometry" />
        </mxCell>
        <mxCell id="rU2u5YYWM_UdheGYgo5h-131" value="ET=0.5" style="text;html=1;align=center;verticalAlign=middle;whiteSpace=wrap;rounded=0;fontSize=8;fontStyle=1" vertex="1" parent="1">
          <mxGeometry x="888.5" y="689.5" width="31" height="10" as="geometry" />
        </mxCell>
        <mxCell id="rU2u5YYWM_UdheGYgo5h-132" value="ET=0.5" style="text;html=1;align=center;verticalAlign=middle;whiteSpace=wrap;rounded=0;fontSize=8;fontStyle=1" vertex="1" parent="1">
          <mxGeometry x="888.5" y="769.5" width="31" height="10" as="geometry" />
        </mxCell>
        <mxCell id="rU2u5YYWM_UdheGYgo5h-133" value="TE=18.5" style="text;html=1;align=center;verticalAlign=middle;whiteSpace=wrap;rounded=0;fontSize=8;fontColor=#006600;fontStyle=1" vertex="1" parent="1">
          <mxGeometry x="888.5" y="639.5" width="31" height="10" as="geometry" />
        </mxCell>
        <mxCell id="rU2u5YYWM_UdheGYgo5h-134" value="TE=18.5" style="text;html=1;align=center;verticalAlign=middle;whiteSpace=wrap;rounded=0;fontSize=8;fontColor=#006600;fontStyle=1" vertex="1" parent="1">
          <mxGeometry x="888.5" y="719.5" width="31" height="10" as="geometry" />
        </mxCell>
        <mxCell id="rU2u5YYWM_UdheGYgo5h-135" value="TL=18.5" style="text;html=1;align=center;verticalAlign=middle;whiteSpace=wrap;rounded=0;fontSize=8;fontStyle=1;fontColor=#994C00;" vertex="1" parent="1">
          <mxGeometry x="888.5" y="629.5" width="31" height="10" as="geometry" />
        </mxCell>
        <mxCell id="rU2u5YYWM_UdheGYgo5h-136" value="TL=18.5" style="text;html=1;align=center;verticalAlign=middle;whiteSpace=wrap;rounded=0;fontSize=8;fontStyle=1;fontColor=#994C00;" vertex="1" parent="1">
          <mxGeometry x="888.5" y="709.5" width="31" height="10" as="geometry" />
        </mxCell>
        <mxCell id="rU2u5YYWM_UdheGYgo5h-137" style="edgeStyle=orthogonalEdgeStyle;rounded=0;orthogonalLoop=1;jettySize=auto;html=1;entryX=0;entryY=0.5;entryDx=0;entryDy=0;" edge="1" parent="1" source="rU2u5YYWM_UdheGYgo5h-143" target="rU2u5YYWM_UdheGYgo5h-153">
          <mxGeometry relative="1" as="geometry" />
        </mxCell>
        <mxCell id="rU2u5YYWM_UdheGYgo5h-138" style="edgeStyle=orthogonalEdgeStyle;rounded=0;orthogonalLoop=1;jettySize=auto;html=1;entryX=0;entryY=0.5;entryDx=0;entryDy=0;" edge="1" parent="1" source="rU2u5YYWM_UdheGYgo5h-143" target="rU2u5YYWM_UdheGYgo5h-151">
          <mxGeometry relative="1" as="geometry" />
        </mxCell>
        <mxCell id="rU2u5YYWM_UdheGYgo5h-139" style="edgeStyle=orthogonalEdgeStyle;rounded=0;orthogonalLoop=1;jettySize=auto;html=1;entryX=0;entryY=0.5;entryDx=0;entryDy=0;" edge="1" parent="1" source="rU2u5YYWM_UdheGYgo5h-143" target="rU2u5YYWM_UdheGYgo5h-161">
          <mxGeometry relative="1" as="geometry" />
        </mxCell>
        <mxCell id="rU2u5YYWM_UdheGYgo5h-140" style="edgeStyle=orthogonalEdgeStyle;rounded=0;orthogonalLoop=1;jettySize=auto;html=1;entryX=0;entryY=0.5;entryDx=0;entryDy=0;" edge="1" parent="1" source="rU2u5YYWM_UdheGYgo5h-143" target="rU2u5YYWM_UdheGYgo5h-168">
          <mxGeometry relative="1" as="geometry" />
        </mxCell>
        <mxCell id="rU2u5YYWM_UdheGYgo5h-141" style="edgeStyle=orthogonalEdgeStyle;rounded=0;orthogonalLoop=1;jettySize=auto;html=1;entryX=0;entryY=0.5;entryDx=0;entryDy=0;" edge="1" parent="1" source="rU2u5YYWM_UdheGYgo5h-143" target="rU2u5YYWM_UdheGYgo5h-166">
          <mxGeometry relative="1" as="geometry" />
        </mxCell>
        <mxCell id="rU2u5YYWM_UdheGYgo5h-142" style="edgeStyle=orthogonalEdgeStyle;rounded=0;orthogonalLoop=1;jettySize=auto;html=1;entryX=0;entryY=0.5;entryDx=0;entryDy=0;" edge="1" parent="1" source="rU2u5YYWM_UdheGYgo5h-143" target="rU2u5YYWM_UdheGYgo5h-176">
          <mxGeometry relative="1" as="geometry" />
        </mxCell>
        <mxCell id="rU2u5YYWM_UdheGYgo5h-143" value="4.3" style="ellipse;whiteSpace=wrap;html=1;aspect=fixed;" vertex="1" parent="1">
          <mxGeometry x="964" y="684.5" width="40" height="40" as="geometry" />
        </mxCell>
        <mxCell id="rU2u5YYWM_UdheGYgo5h-144" value="ET=2" style="text;html=1;align=center;verticalAlign=middle;whiteSpace=wrap;rounded=0;fontSize=8;fontStyle=1" vertex="1" parent="1">
          <mxGeometry x="968" y="725" width="31" height="10" as="geometry" />
        </mxCell>
        <mxCell id="rU2u5YYWM_UdheGYgo5h-145" value="TE=20" style="text;html=1;align=center;verticalAlign=middle;whiteSpace=wrap;rounded=0;fontSize=8;fontColor=#006600;fontStyle=1" vertex="1" parent="1">
          <mxGeometry x="968" y="675" width="31" height="10" as="geometry" />
        </mxCell>
        <mxCell id="rU2u5YYWM_UdheGYgo5h-146" value="TL=20" style="text;html=1;align=center;verticalAlign=middle;whiteSpace=wrap;rounded=0;fontSize=8;fontColor=#994C00;fontStyle=1" vertex="1" parent="1">
          <mxGeometry x="972.5" y="666" width="21" height="10" as="geometry" />
        </mxCell>
        <mxCell id="rU2u5YYWM_UdheGYgo5h-147" value="TL=8.5" style="text;html=1;align=center;verticalAlign=middle;whiteSpace=wrap;rounded=0;fontSize=8;fontStyle=1;fontColor=#994C00;" vertex="1" parent="1">
          <mxGeometry x="57.5" y="639.5" width="31" height="10" as="geometry" />
        </mxCell>
        <mxCell id="rU2u5YYWM_UdheGYgo5h-148" value="TL=8.5" style="text;html=1;align=center;verticalAlign=middle;whiteSpace=wrap;rounded=0;fontSize=8;fontStyle=1;fontColor=#994C00;" vertex="1" parent="1">
          <mxGeometry x="57.5" y="719.5" width="31" height="10" as="geometry" />
        </mxCell>
        <mxCell id="rU2u5YYWM_UdheGYgo5h-149" value="TL=8.5" style="text;html=1;align=center;verticalAlign=middle;whiteSpace=wrap;rounded=0;fontSize=8;fontStyle=1;fontColor=#994C00;" vertex="1" parent="1">
          <mxGeometry x="57.5" y="798.5" width="31" height="10" as="geometry" />
        </mxCell>
        <mxCell id="rU2u5YYWM_UdheGYgo5h-150" style="edgeStyle=orthogonalEdgeStyle;rounded=0;orthogonalLoop=1;jettySize=auto;html=1;entryX=0;entryY=0.5;entryDx=0;entryDy=0;" edge="1" parent="1" source="rU2u5YYWM_UdheGYgo5h-151" target="rU2u5YYWM_UdheGYgo5h-180">
          <mxGeometry relative="1" as="geometry" />
        </mxCell>
        <mxCell id="rU2u5YYWM_UdheGYgo5h-151" value="4.5" style="ellipse;whiteSpace=wrap;html=1;aspect=fixed;" vertex="1" parent="1">
          <mxGeometry x="1045.5" y="569.5" width="40" height="40" as="geometry" />
        </mxCell>
        <mxCell id="rU2u5YYWM_UdheGYgo5h-152" style="edgeStyle=orthogonalEdgeStyle;rounded=0;orthogonalLoop=1;jettySize=auto;html=1;entryX=0;entryY=0.5;entryDx=0;entryDy=0;" edge="1" parent="1" source="rU2u5YYWM_UdheGYgo5h-153" target="rU2u5YYWM_UdheGYgo5h-181">
          <mxGeometry relative="1" as="geometry" />
        </mxCell>
        <mxCell id="rU2u5YYWM_UdheGYgo5h-153" value="4.4" style="ellipse;whiteSpace=wrap;html=1;aspect=fixed;" vertex="1" parent="1">
          <mxGeometry x="1045.5" y="489.5" width="40" height="40" as="geometry" />
        </mxCell>
        <mxCell id="rU2u5YYWM_UdheGYgo5h-154" value="ET=1.5" style="text;html=1;align=center;verticalAlign=middle;whiteSpace=wrap;rounded=0;fontSize=8;fontStyle=1" vertex="1" parent="1">
          <mxGeometry x="1050" y="529.5" width="31" height="10" as="geometry" />
        </mxCell>
        <mxCell id="rU2u5YYWM_UdheGYgo5h-155" value="ET=1.5" style="text;html=1;align=center;verticalAlign=middle;whiteSpace=wrap;rounded=0;fontSize=8;fontStyle=1" vertex="1" parent="1">
          <mxGeometry x="1050" y="609.5" width="31" height="10" as="geometry" />
        </mxCell>
        <mxCell id="rU2u5YYWM_UdheGYgo5h-156" value="TE=21.5" style="text;html=1;align=center;verticalAlign=middle;whiteSpace=wrap;rounded=0;fontSize=8;fontColor=#006600;fontStyle=1" vertex="1" parent="1">
          <mxGeometry x="1050" y="479.5" width="31" height="10" as="geometry" />
        </mxCell>
        <mxCell id="rU2u5YYWM_UdheGYgo5h-157" value="TE=21.5" style="text;html=1;align=center;verticalAlign=middle;whiteSpace=wrap;rounded=0;fontSize=8;fontColor=#006600;fontStyle=1" vertex="1" parent="1">
          <mxGeometry x="1050" y="559.5" width="31" height="10" as="geometry" />
        </mxCell>
        <mxCell id="rU2u5YYWM_UdheGYgo5h-158" value="TL=21.5" style="text;html=1;align=center;verticalAlign=middle;whiteSpace=wrap;rounded=0;fontSize=8;fontStyle=1;fontColor=#994C00;" vertex="1" parent="1">
          <mxGeometry x="1050" y="469.5" width="31" height="10" as="geometry" />
        </mxCell>
        <mxCell id="rU2u5YYWM_UdheGYgo5h-159" value="TL=21.5" style="text;html=1;align=center;verticalAlign=middle;whiteSpace=wrap;rounded=0;fontSize=8;fontStyle=1;fontColor=#994C00;" vertex="1" parent="1">
          <mxGeometry x="1050" y="549.5" width="31" height="10" as="geometry" />
        </mxCell>
        <mxCell id="rU2u5YYWM_UdheGYgo5h-160" style="edgeStyle=orthogonalEdgeStyle;rounded=0;orthogonalLoop=1;jettySize=auto;html=1;entryX=0;entryY=0.5;entryDx=0;entryDy=0;" edge="1" parent="1" source="rU2u5YYWM_UdheGYgo5h-161" target="rU2u5YYWM_UdheGYgo5h-188">
          <mxGeometry relative="1" as="geometry" />
        </mxCell>
        <mxCell id="rU2u5YYWM_UdheGYgo5h-161" value="4.6" style="ellipse;whiteSpace=wrap;html=1;aspect=fixed;" vertex="1" parent="1">
          <mxGeometry x="1045.5" y="644.5" width="40" height="40" as="geometry" />
        </mxCell>
        <mxCell id="rU2u5YYWM_UdheGYgo5h-162" value="ET=1.5" style="text;html=1;align=center;verticalAlign=middle;whiteSpace=wrap;rounded=0;fontSize=8;fontStyle=1" vertex="1" parent="1">
          <mxGeometry x="1050" y="684.5" width="31" height="10" as="geometry" />
        </mxCell>
        <mxCell id="rU2u5YYWM_UdheGYgo5h-163" value="TE=21.5" style="text;html=1;align=center;verticalAlign=middle;whiteSpace=wrap;rounded=0;fontSize=8;fontColor=#006600;fontStyle=1" vertex="1" parent="1">
          <mxGeometry x="1050" y="634.5" width="31" height="10" as="geometry" />
        </mxCell>
        <mxCell id="rU2u5YYWM_UdheGYgo5h-164" value="TL=21.5" style="text;html=1;align=center;verticalAlign=middle;whiteSpace=wrap;rounded=0;fontSize=8;fontStyle=1;fontColor=#994C00;" vertex="1" parent="1">
          <mxGeometry x="1050" y="624.5" width="31" height="10" as="geometry" />
        </mxCell>
        <mxCell id="rU2u5YYWM_UdheGYgo5h-165" style="edgeStyle=orthogonalEdgeStyle;rounded=0;orthogonalLoop=1;jettySize=auto;html=1;" edge="1" parent="1" source="rU2u5YYWM_UdheGYgo5h-166" target="rU2u5YYWM_UdheGYgo5h-188">
          <mxGeometry relative="1" as="geometry" />
        </mxCell>
        <mxCell id="rU2u5YYWM_UdheGYgo5h-166" value="5.2" style="ellipse;whiteSpace=wrap;html=1;aspect=fixed;" vertex="1" parent="1">
          <mxGeometry x="1045.5" y="801" width="40" height="40" as="geometry" />
        </mxCell>
        <mxCell id="rU2u5YYWM_UdheGYgo5h-167" style="edgeStyle=orthogonalEdgeStyle;rounded=0;orthogonalLoop=1;jettySize=auto;html=1;" edge="1" parent="1" source="rU2u5YYWM_UdheGYgo5h-168" target="rU2u5YYWM_UdheGYgo5h-180">
          <mxGeometry relative="1" as="geometry" />
        </mxCell>
        <mxCell id="rU2u5YYWM_UdheGYgo5h-168" value="5.1" style="ellipse;whiteSpace=wrap;html=1;aspect=fixed;" vertex="1" parent="1">
          <mxGeometry x="1045.5" y="721" width="40" height="40" as="geometry" />
        </mxCell>
        <mxCell id="rU2u5YYWM_UdheGYgo5h-169" value="ET=5" style="text;html=1;align=center;verticalAlign=middle;whiteSpace=wrap;rounded=0;fontSize=8;fontStyle=1" vertex="1" parent="1">
          <mxGeometry x="1050" y="761" width="31" height="10" as="geometry" />
        </mxCell>
        <mxCell id="rU2u5YYWM_UdheGYgo5h-170" value="ET=5" style="text;html=1;align=center;verticalAlign=middle;whiteSpace=wrap;rounded=0;fontSize=8;fontStyle=1" vertex="1" parent="1">
          <mxGeometry x="1050" y="841" width="31" height="10" as="geometry" />
        </mxCell>
        <mxCell id="rU2u5YYWM_UdheGYgo5h-171" value="TE=25" style="text;html=1;align=center;verticalAlign=middle;whiteSpace=wrap;rounded=0;fontSize=8;fontColor=#006600;fontStyle=1" vertex="1" parent="1">
          <mxGeometry x="1050" y="711" width="31" height="10" as="geometry" />
        </mxCell>
        <mxCell id="rU2u5YYWM_UdheGYgo5h-172" value="TE=25" style="text;html=1;align=center;verticalAlign=middle;whiteSpace=wrap;rounded=0;fontSize=8;fontColor=#006600;fontStyle=1" vertex="1" parent="1">
          <mxGeometry x="1050" y="791" width="31" height="10" as="geometry" />
        </mxCell>
        <mxCell id="rU2u5YYWM_UdheGYgo5h-173" value="TL=25" style="text;html=1;align=center;verticalAlign=middle;whiteSpace=wrap;rounded=0;fontSize=8;fontStyle=1;fontColor=#994C00;" vertex="1" parent="1">
          <mxGeometry x="1050" y="701" width="31" height="10" as="geometry" />
        </mxCell>
        <mxCell id="rU2u5YYWM_UdheGYgo5h-174" value="TL=25" style="text;html=1;align=center;verticalAlign=middle;whiteSpace=wrap;rounded=0;fontSize=8;fontStyle=1;fontColor=#994C00;" vertex="1" parent="1">
          <mxGeometry x="1050" y="781" width="31" height="10" as="geometry" />
        </mxCell>
        <mxCell id="rU2u5YYWM_UdheGYgo5h-175" style="edgeStyle=orthogonalEdgeStyle;rounded=0;orthogonalLoop=1;jettySize=auto;html=1;entryX=0;entryY=0.5;entryDx=0;entryDy=0;" edge="1" parent="1" source="rU2u5YYWM_UdheGYgo5h-176" target="rU2u5YYWM_UdheGYgo5h-181">
          <mxGeometry relative="1" as="geometry" />
        </mxCell>
        <mxCell id="rU2u5YYWM_UdheGYgo5h-176" value="5.3" style="ellipse;whiteSpace=wrap;html=1;aspect=fixed;" vertex="1" parent="1">
          <mxGeometry x="1045.5" y="876" width="40" height="40" as="geometry" />
        </mxCell>
        <mxCell id="rU2u5YYWM_UdheGYgo5h-177" value="ET=5" style="text;html=1;align=center;verticalAlign=middle;whiteSpace=wrap;rounded=0;fontSize=8;fontStyle=1" vertex="1" parent="1">
          <mxGeometry x="1050" y="916" width="31" height="10" as="geometry" />
        </mxCell>
        <mxCell id="rU2u5YYWM_UdheGYgo5h-178" value="TE=25" style="text;html=1;align=center;verticalAlign=middle;whiteSpace=wrap;rounded=0;fontSize=8;fontColor=#006600;fontStyle=1" vertex="1" parent="1">
          <mxGeometry x="1050" y="866" width="31" height="10" as="geometry" />
        </mxCell>
        <mxCell id="rU2u5YYWM_UdheGYgo5h-179" value="TL=25" style="text;html=1;align=center;verticalAlign=middle;whiteSpace=wrap;rounded=0;fontSize=8;fontStyle=1;fontColor=#994C00;" vertex="1" parent="1">
          <mxGeometry x="1050" y="856" width="31" height="10" as="geometry" />
        </mxCell>
        <mxCell id="rU2u5YYWM_UdheGYgo5h-180" value="6.2" style="ellipse;whiteSpace=wrap;html=1;aspect=fixed;" vertex="1" parent="1">
          <mxGeometry x="1170.5" y="687.5" width="40" height="40" as="geometry" />
        </mxCell>
        <mxCell id="rU2u5YYWM_UdheGYgo5h-181" value="6.1" style="ellipse;whiteSpace=wrap;html=1;aspect=fixed;" vertex="1" parent="1">
          <mxGeometry x="1170.5" y="607.5" width="40" height="40" as="geometry" />
        </mxCell>
        <mxCell id="rU2u5YYWM_UdheGYgo5h-182" value="ET=2" style="text;html=1;align=center;verticalAlign=middle;whiteSpace=wrap;rounded=0;fontSize=8;fontStyle=1" vertex="1" parent="1">
          <mxGeometry x="1175" y="647.5" width="31" height="10" as="geometry" />
        </mxCell>
        <mxCell id="rU2u5YYWM_UdheGYgo5h-183" value="ET=2" style="text;html=1;align=center;verticalAlign=middle;whiteSpace=wrap;rounded=0;fontSize=8;fontStyle=1" vertex="1" parent="1">
          <mxGeometry x="1175" y="727.5" width="31" height="10" as="geometry" />
        </mxCell>
        <mxCell id="rU2u5YYWM_UdheGYgo5h-184" value="TE=27" style="text;html=1;align=center;verticalAlign=middle;whiteSpace=wrap;rounded=0;fontSize=8;fontColor=#006600;fontStyle=1" vertex="1" parent="1">
          <mxGeometry x="1175" y="597.5" width="31" height="10" as="geometry" />
        </mxCell>
        <mxCell id="rU2u5YYWM_UdheGYgo5h-185" value="TE=27" style="text;html=1;align=center;verticalAlign=middle;whiteSpace=wrap;rounded=0;fontSize=8;fontColor=#006600;fontStyle=1" vertex="1" parent="1">
          <mxGeometry x="1175" y="677.5" width="31" height="10" as="geometry" />
        </mxCell>
        <mxCell id="rU2u5YYWM_UdheGYgo5h-186" value="TL=27" style="text;html=1;align=center;verticalAlign=middle;whiteSpace=wrap;rounded=0;fontSize=8;fontStyle=1;fontColor=#994C00;" vertex="1" parent="1">
          <mxGeometry x="1175" y="587.5" width="31" height="10" as="geometry" />
        </mxCell>
        <mxCell id="rU2u5YYWM_UdheGYgo5h-187" value="TL=27" style="text;html=1;align=center;verticalAlign=middle;whiteSpace=wrap;rounded=0;fontSize=8;fontStyle=1;fontColor=#994C00;" vertex="1" parent="1">
          <mxGeometry x="1175" y="667.5" width="31" height="10" as="geometry" />
        </mxCell>
        <mxCell id="rU2u5YYWM_UdheGYgo5h-188" value="7" style="ellipse;whiteSpace=wrap;html=1;aspect=fixed;" vertex="1" parent="1">
          <mxGeometry x="1170.5" y="762.5" width="40" height="40" as="geometry" />
        </mxCell>
        <mxCell id="rU2u5YYWM_UdheGYgo5h-189" value="ET=2" style="text;html=1;align=center;verticalAlign=middle;whiteSpace=wrap;rounded=0;fontSize=8;fontStyle=1" vertex="1" parent="1">
          <mxGeometry x="1175" y="802.5" width="31" height="10" as="geometry" />
        </mxCell>
        <mxCell id="rU2u5YYWM_UdheGYgo5h-190" value="TE=27" style="text;html=1;align=center;verticalAlign=middle;whiteSpace=wrap;rounded=0;fontSize=8;fontColor=#006600;fontStyle=1" vertex="1" parent="1">
          <mxGeometry x="1175" y="752.5" width="31" height="10" as="geometry" />
        </mxCell>
        <mxCell id="rU2u5YYWM_UdheGYgo5h-191" value="TL=27" style="text;html=1;align=center;verticalAlign=middle;whiteSpace=wrap;rounded=0;fontSize=8;fontStyle=1;fontColor=#994C00;" vertex="1" parent="1">
          <mxGeometry x="1175" y="742.5" width="31" height="10" as="geometry" />
        </mxCell>
      </root>
    </mxGraphModel>
  </diagram>
</mxfile>
